PathFileType	4	(X/Y/Z)	2014001\dynamic\2014001_C3_03.trc
DataRate	CameraRate	NumFrames	NumMarkers	Units	OrigDataRate	OrigDataStartFrame	OrigNumFrames
100.000000	100.000000	4	52	mm	100.000000	45	183
Frame#	Time	L_IAS			L_IPS			R_IPS			R_IAS			L_FTC			L_FLE			L_FME			L_FAX			L_TTC			L_FAL			L_TAM			L_FCC			L_FM1			L_FM2			L_FM5			R_FTC			R_FLE			R_FME			R_FAX			R_TTC			R_FAL			R_TAM			R_FCC			R_FM1			R_FM2			R_FM5			CV7			TV10			SXS			SJN			L_SIA			L_SRS			L_SAA			L_SAE			L_HLE			L_HME			L_UOA			L_RSP			L_UHE			L_HM2			L_HM5			R_SIA			R_SRS			R_SAA			R_SAE			R_HLE			R_HME			R_UOA			R_RSP			R_UHE			R_HM2			R_HM5			
		X1	Y1	Z1	X2	Y2	Z2	X3	Y3	Z3	X4	Y4	Z4	X5	Y5	Z5	X6	Y6	Z6	X7	Y7	Z7	X8	Y8	Z8	X9	Y9	Z9	X10	Y10	Z10	X11	Y11	Z11	X12	Y12	Z12	X13	Y13	Z13	X14	Y14	Z14	X15	Y15	Z15	X16	Y16	Z16	X17	Y17	Z17	X18	Y18	Z18	X19	Y19	Z19	X20	Y20	Z20	X21	Y21	Z21	X22	Y22	Z22	X23	Y23	Z23	X24	Y24	Z24	X25	Y25	Z25	X26	Y26	Z26	X27	Y27	Z27	X28	Y28	Z28	X29	Y29	Z29	X30	Y30	Z30	X31	Y31	Z31	X32	Y32	Z32	X33	Y33	Z33	X34	Y34	Z34	X35	Y35	Z35	X36	Y36	Z36	X37	Y37	Z37	X38	Y38	Z38	X39	Y39	Z39	X40	Y40	Z40	X41	Y41	Z41	X42	Y42	Z42	X43	Y43	Z43	X44	Y44	Z44	X45	Y45	Z45	X46	Y46	Z46	X47	Y47	Z47	X48	Y48	Z48	X49	Y49	Z49	X50	Y50	Z50	X51	Y51	Z51	X52	Y52	Z52	

46	0.45	344.1280822753907	884.8897094726567	340.6954956054689	261.4274902343751	916.2455444335942	167.0135498046876	172.5381774902344	912.567504882813	171.2676849365235	104.5947875976563	880.0815429687505	353.7403869628907	403.0047607421877	797.095825195313	271.2213745117189	404.7855224609377	462.5440063476565	394.4632263183596	292.3335266113282	447.7170410156252	433.0950012207034	407.040222167969	406.5104064941409	369.3177185058595	374.7539672851564	376.5073547363282	437.8332214355471	373.0949096679689	90.669303894043	301.3143005371095	292.8960876464845	93.39521789550784	341.8747863769532	321.6353454589845	51.55241775512698	262.597137451172	337.6421203613282	42.07527923583986	442.0672912597659	394.2851867675784	52.97711181640628	433.3912353515627	422.5144348144534	40.52164840698244	380.3224182128907	49.04651260375979	785.4761352539067	257.7114562988282	96.15917968750006	436.7618713378909	242.9397277832032	216.5167846679689	428.2433166503909	246.170135498047	94.42888641357425	371.0062561035157	218.6074676513673	149.7073822021485	362.1838684082032	275.100555419922	149.7687988281251	67.94458007812503	143.4084930419922	235.8324584960939	81.55204010009768	179.8839721679688	205.0753936767579	29.14281845092775	97.77747344970709	220.6184082031251	22.0243148803711	284.7603454589845	156.5196228027344	35.22816085815431	291.8115234375001	110.5561599731446	23.95935630798341	230.0760955810548	205.7611694335939	1383.93359375	205.8933563232423	203.8978118896486	1150.072021484375	143.1281280517579	235.0247650146486	1158.071411132813	374.6922912597657	229.2043304443361	1320.423706054688	331.8890380859376	288.2961425781251	1189.129760742188	125.0457916259766	283.9776306152345	1320.7744140625	147.555160522461	399.7406921386721	1321.0673828125	197.5471954345704	396.1363220214846	1331.118530273438	240.4502105712892	473.1058654785159	1062.904174804688	153.461898803711	396.0513305664065	1029.580200195313	138.5971832275391	442.1256103515627	1035.584106445313	121.7120666503907	471.6216430664065	815.2804565429692	197.2653350830079	526.7273559570315	829.358520507813	140.6356811523438	487.8188171386721	729.390808105469	205.0559539794923	531.960876464844	754.4443969726565	116.2294616699219	82.97657775878909	1194.029418945313	159.6603240966797	113.9550323486329	1314.624267578125	179.7029418945313	22.74985694885255	1318.901245117188	269.1829833984376	44.65828704833986	1325.759765625	313.149139404297	-53.08387756347659	1030.631958007813	347.7934875488282	14.13365650177003	999.9500122070317	310.7449951171876	-32.32167816162111	994.9625854492192	321.602752685547	-2.380102396011353	873.0437011718755	509.324645996094	-72.9871520996094	854.8983764648442	475.5666503906252	-12.38468456268311	809.3017578125005	577.0437011718752	-76.52375030517581	782.119995117188	502.390808105469	
47	0.46	344.6517639160157	883.6210327148442	349.5440979003907	262.0186767578126	914.8332519531255	175.7901916503907	173.2597961425782	911.4323730468755	180.0758056640626	104.9925537109376	878.825317382813	362.4457397460939	403.5347595214846	795.6340942382817	280.2386474609376	403.7915344238284	461.5130310058596	406.2141418457034	291.1776428222657	447.7322692871096	444.6115722656252	406.0905456542971	404.2968444824221	383.495819091797	373.6879882812501	377.7470092773439	453.2024230957034	373.526092529297	85.25086212158206	333.9553527832032	293.1458129882814	89.99005126953128	374.4570617675782	322.1226501464845	43.69294357299806	297.5386352539064	338.1286621093751	44.94426345825197	477.4080200195315	394.8204040527346	55.57406234741214	468.1702575683596	423.0541992187502	40.13584518432619	415.935729980469	49.32681655883792	784.8064575195317	265.655487060547	96.22959136962896	436.4846496582034	245.9960479736329	216.5296478271486	427.6363525390627	249.1147003173829	94.51335906982425	370.9234924316407	220.945037841797	149.7087707519532	361.4106445312501	277.410369873047	149.8226165771485	68.22132110595706	143.587142944336	236.0273590087892	81.77024841308597	180.0461120605469	205.1716308593751	29.49941253662111	97.79193115234381	220.5748596191407	22.00885009765626	284.7895812988282	156.4881439208985	35.1784133911133	291.8392333984376	110.5481567382813	23.93157005310059	230.0522460937501	206.3413696289064	1382.721069335938	215.4507446289064	204.1337127685548	1149.0859375	152.1375427246094	235.7322692871095	1156.484741210938	383.8194580078126	230.052947998047	1318.93310546875	341.2857055664064	288.2102050781251	1187.894897460938	134.0452423095704	284.1598205566407	1319.600830078125	156.7615203857422	400.0141906738284	1319.52880859375	206.2813415527345	396.6975402832034	1329.472778320313	249.239959716797	472.9346923828127	1062.011474609375	159.7510223388672	395.7796936035159	1028.639282226563	145.6508941650391	441.5764770507815	1034.902099609375	128.2472839355469	472.5505371093752	814.0393066406255	201.2732238769532	526.980895996094	828.7902832031255	144.175033569336	488.9790344238284	728.1517333984377	208.0971832275392	532.116638183594	754.0903930664065	119.0643310546876	83.08546447753909	1193.08349609375	169.5023651123047	114.2949295043946	1313.569580078125	189.4881439208985	23.39306449890137	1317.966796875	279.2165832519532	45.54897689819337	1324.859741210938	323.0549621582032	-53.26025390625003	1030.488403320313	361.0695190429689	13.9184913635254	999.157104492188	324.4408569335939	-32.56098937988283	994.287719726563	335.4190673828126	-1.223166942596436	877.1163940429692	525.939392089844	-71.71744537353518	857.8021850585942	493.2546386718752	-10.64411449432373	815.337768554688	595.6470336914065	-74.80410766601565	785.8170776367192	521.852722167969	
48	0.47	345.2210693359376	882.1781616210942	358.4206542968751	262.651092529297	913.366577148438	184.6312408447266	173.9958953857422	910.2734985351567	188.9544982910157	105.4521789550782	877.5407104492192	371.2636718750001	404.056579589844	794.021362304688	289.1408996582032	402.7958679199221	460.229675292969	417.4056701660159	289.970672607422	447.445007324219	455.5837097167971	405.1709289550784	401.9703063964846	397.309020996094	372.5711975097657	378.9617614746095	468.0318908691409	374.0054016113282	80.82338714599612	366.6622924804689	293.3793334960939	87.62351989746097	406.879333496094	322.6622009277345	36.98555755615236	332.6357421875001	338.3121643066407	48.89190292358401	512.249938964844	395.0705261230471	59.15655136108401	502.6164855957034	423.4045410156252	40.77035903930665	451.462585449219	49.59120178222659	784.139526367188	273.6644897460939	96.26482391357428	436.2411193847659	249.1164855957032	216.4999847412111	427.0457153320315	252.2079620361329	94.57265472412112	370.9014282226564	223.3476104736329	149.6578979492188	360.6361389160157	279.7979125976564	149.861068725586	68.572135925293	143.7886505126954	236.1882476806642	82.06350708007815	180.2814331054688	205.2590179443361	29.96716117858888	97.81558227539068	220.517791748047	22.00045967102051	284.8357238769532	156.4446868896485	35.11349487304689	291.8845825195314	110.5294723510743	23.88122940063477	230.0436248779298	207.0218200683595	1381.42138671875	225.0580596923829	204.4747467041017	1148.022338867188	161.206527709961	236.5531311035157	1154.8291015625	392.9958190917971	230.9808502197267	1317.3701171875	350.7371826171876	288.2730407714845	1186.6259765625	143.1246795654297	284.465789794922	1318.375732421875	166.0311737060547	400.4167785644534	1317.949951171875	215.1313629150392	397.3593750000002	1327.796264648438	258.1277770996095	472.8282470703127	1061.003540039063	166.4219360351563	395.5686035156252	1027.575927734375	153.0896453857422	441.0885925292971	1034.099853515625	135.1409149169922	473.4148559570315	812.730346679688	205.6850585937501	527.2784423828127	828.151489257813	148.2370300292969	489.9930419921877	726.8232421875002	211.5235290527345	532.359558105469	753.6973266601565	122.4302062988282	83.33684539794925	1192.045288085938	179.3486785888672	114.7530975341797	1312.425415039063	199.2956695556642	24.13698196411134	1316.91455078125	289.262664794922	46.53982543945314	1323.81298828125	332.9946594238282	-53.26556015014651	1030.203857421875	374.1177978515626	13.91445255279542	998.2855834960942	337.9349365234376	-32.60644149780275	993.5541381835942	348.938446044922	0.04911112040281299	881.049682617188	542.073181152344	-70.26157379150393	860.5313110351567	510.5519104003909	-8.800472259521488	821.201293945313	613.721374511719	-72.87238311767581	789.373901367188	540.770690917969	
49	0.48	345.8177795410157	880.581909179688	367.3447265625001	263.3300781250001	911.8566284179692	193.5440979003907	174.7503051757813	909.0922851562505	197.9034881591798	105.9618301391602	876.2363891601567	380.1916503906251	404.5735778808596	792.2812500000005	297.9661865234376	401.8113098144534	458.734558105469	428.1030578613284	288.7253417968751	446.8885498046877	466.0565490722659	404.2903137207034	399.5904235839846	410.7868957519534	371.4119873046876	380.1583251953126	482.3513488769534	374.5160522460939	77.42757415771487	399.2224731445315	293.5855712890626	86.31028747558597	438.9170532226565	323.2426757812501	31.48571586608888	367.643524169922	338.1689453125001	53.87305068969729	546.3815917968752	395.0088806152346	63.68720245361331	536.5308837890627	423.5425109863284	42.41167449951173	486.6931762695315	49.84267425537112	783.4755249023442	281.7351989746095	96.26956939697271	436.0302734375002	252.3288726806642	216.435760498047	426.4689025878909	255.4737854003907	94.60938262939456	370.9380493164064	225.8413238525392	149.5578613281251	359.8689575195314	282.2876586914064	149.8837890625001	69.00402832031253	144.0198516845704	236.3141632080079	82.42933654785159	180.5975799560547	205.3359680175782	30.56170463562013	97.85318756103521	220.4485931396486	21.99883270263673	284.8938598632814	156.391586303711	35.03566360473634	291.9470520019532	110.5022583007813	23.81108093261719	230.0469512939454	207.8006134033204	1380.043334960938	234.7223205566407	204.9196166992189	1146.889526367188	170.3446807861329	237.4873504638673	1153.121337890625	402.2316589355471	231.9951019287111	1315.750610351563	360.2493286132814	288.4863281250001	1185.325561523438	152.2831115722657	284.8938293457032	1317.100830078125	175.3665466308594	400.9461669921877	1316.33984375	224.0886383056642	398.1246337890627	1326.098754882813	267.1079406738282	472.7998962402346	1059.883056640625	173.4723205566407	395.4316406250002	1026.394409179688	160.9111633300782	440.6760864257815	1033.18017578125	142.3912811279297	474.2439270019534	811.357055664063	210.5266265869142	527.630065917969	827.4353637695317	152.8176879882813	490.8915100097659	725.409118652344	215.3640289306642	532.6780395507815	753.2520141601565	126.3229675292969	83.73270416259768	1190.920776367188	189.2041931152344	115.3313522338868	1311.201171875	209.1292266845704	24.98402786254884	1315.7529296875	299.3278808593751	47.63203430175783	1322.638549804688	342.9655761718751	-53.0962944030762	1029.781982421875	386.9224853515627	14.11718177795411	997.3342285156255	351.209197998047	-32.46408843994142	992.7594604492192	362.1466064453126	1.444038271903992	884.8107910156255	557.726013183594	-68.62602996826175	863.061889648438	527.4468383789065	-6.851732730865482	826.8540649414067	631.2509765625002	-70.74209594726565	792.7575073242192	559.137634277344	
